<svg preserveAspectRatio="none" width="100%" height="100%" overflow="visible" style="display: block;" viewBox="0 0 100 100" fill="none" xmlns="http://www.w3.org/2000/svg">
<g id="icon-2">
<path id="Intersect" d="M34 38C47.1666 38 58.0449 47.7874 59.7617 60.4834C57.0239 61.4633 54.0748 62 51 62C37.833 62 26.9536 52.2122 25.2373 39.5156C27.9753 38.5356 30.925 38 34 38Z" fill="url(#paint0_linear_0_67)" fill-opacity="0.4"/>
<path id="Intersect_2" d="M51 44.3271C56.5123 49.0947 60 56.14 60 64C60 71.8597 56.512 78.9043 51 83.6719C45.488 78.9043 42 71.8597 42 64C42 56.14 45.4877 49.0947 51 44.3271Z" fill="url(#paint1_linear_0_67)" fill-opacity="0.4"/>
<path id="Intersect_3" d="M68 38C71.0747 38 74.0239 38.5358 76.7617 39.5156C75.0454 52.2121 64.167 62 51 62C47.9249 62 44.9754 61.4635 42.2373 60.4834C43.954 47.7873 54.8333 38 68 38Z" fill="url(#paint2_linear_0_67)" fill-opacity="0.4"/>
<g id="Intersect_4">
<path d="M51 44.3271C55.6758 48.3712 58.8924 54.0545 59.7617 60.4834C57.0239 61.4633 54.0748 62 51 62C47.9249 62 44.9754 61.4635 42.2373 60.4834C43.1066 54.0545 46.3242 48.3712 51 44.3271Z" fill="var(--fill-0, #D9D9D9)"/>
<path d="M51 44.3271C55.6758 48.3712 58.8924 54.0545 59.7617 60.4834C57.0239 61.4633 54.0748 62 51 62C47.9249 62 44.9754 61.4635 42.2373 60.4834C43.1066 54.0545 46.3242 48.3712 51 44.3271Z" fill="url(#paint3_linear_0_67)"/>
</g>
<circle id="Ellipse 15" cx="34" cy="64" r="26" stroke="var(--stroke-0, #03030F)" stroke-width="2"/>
<circle id="Ellipse 17" cx="51" cy="36" r="26" stroke="var(--stroke-0, #03030F)" stroke-width="2"/>
<circle id="Ellipse 16" cx="68" cy="64" r="26" stroke="var(--stroke-0, #03030F)" stroke-width="2"/>
</g>
<defs>
<linearGradient id="paint0_linear_0_67" x1="59.7617" y1="50.0001" x2="25.2373" y2="50.0001" gradientUnits="userSpaceOnUse">
<stop stop-color="#EDB5A0"/>
<stop offset="1" stop-color="#9BACFF"/>
</linearGradient>
<linearGradient id="paint1_linear_0_67" x1="60" y1="63.9997" x2="42" y2="63.9997" gradientUnits="userSpaceOnUse">
<stop stop-color="#EDB5A0"/>
<stop offset="1" stop-color="#9BACFF"/>
</linearGradient>
<linearGradient id="paint2_linear_0_67" x1="76.7617" y1="50.0001" x2="42.2373" y2="50.0001" gradientUnits="userSpaceOnUse">
<stop stop-color="#EDB5A0"/>
<stop offset="1" stop-color="#9BACFF"/>
</linearGradient>
<linearGradient id="paint3_linear_0_67" x1="49.9995" y1="61.2316" x2="49.9995" y2="45.4396" gradientUnits="userSpaceOnUse">
<stop stop-color="#EDB5A0"/>
<stop offset="1" stop-color="#9BACFF"/>
</linearGradient>
</defs>
</svg>
