<svg preserveAspectRatio="none" width="100%" height="100%" overflow="visible" style="display: block;" viewBox="0 0 100 100" fill="none" xmlns="http://www.w3.org/2000/svg">
<g id="icon-1">
<circle id="Ellipse 22" cx="46" cy="54" r="28" fill="url(#paint0_linear_0_48)" fill-opacity="0.4"/>
<circle id="Ellipse 21" cx="46" cy="54" r="15" fill="url(#paint1_linear_0_48)"/>
<path id="Subtract" d="M46 13C57.3345 13 67.5941 17.6 75.0156 25.0342L73.6016 26.4482C66.542 19.376 56.7822 15 46 15C24.4609 15 7 32.4609 7 54C7 75.5391 24.4609 93 46 93C67.5391 93 85 75.5391 85 54C85 45.7719 82.4497 38.1404 78.0996 31.8486L79.5371 30.4111C84.2381 37.0824 87 45.2184 87 54C87 76.6437 68.6437 95 46 95C23.3563 95 5 76.6437 5 54C5 31.3563 23.3563 13 46 13ZM46 25C54.0208 25 61.2804 28.2569 66.5303 33.5195L65.1162 34.9336C60.2282 30.0329 53.4685 27 46 27C31.0883 27 19 39.0883 19 54C19 68.9117 31.0883 81 46 81C60.9117 81 73 68.9117 73 54C73 49.098 71.6927 44.5017 69.4092 40.5391L70.8701 39.0781C73.4915 43.4377 75 48.5425 75 54C75 70.0163 62.0163 83 46 83C29.9837 83 17 70.0163 17 54C17 37.9837 29.9837 25 46 25ZM46 38C50.4309 38 54.4405 39.8018 57.3379 42.7119L55.9238 44.126C53.3884 41.5778 49.8787 40 46 40C38.268 40 32 46.268 32 54C32 61.732 38.268 68 46 68C53.732 68 60 61.732 60 54C60 52.76 59.8378 51.558 59.5352 50.4131L61.1387 48.8096C61.6966 50.4372 62 52.1832 62 54C62 62.8366 54.8366 70 46 70C37.1634 70 30 62.8366 30 54C30 45.1634 37.1634 38 46 38Z" fill="var(--fill-0, #03030F)"/>
<circle id="Ellipse" cx="46" cy="54" r="5" fill="var(--fill-0, #03030F)"/>
<path id="Rectangle 34626961" d="M86.8619 12.2528L85.8013 4.12109L74.4876 15.4348L75.5482 23.5665M86.8619 12.2528L94.9937 13.3135L83.6799 24.6272L75.5482 23.5665M86.8619 12.2528L75.5482 23.5665M75.5482 23.5665L46.2029 53.882" stroke="var(--stroke-0, #03030F)" stroke-width="2" stroke-linejoin="bevel"/>
</g>
<defs>
<linearGradient id="paint0_linear_0_48" x1="74" y1="54.0003" x2="18" y2="54.0003" gradientUnits="userSpaceOnUse">
<stop stop-color="#EDB5A0"/>
<stop offset="1" stop-color="#9BACFF"/>
</linearGradient>
<linearGradient id="paint1_linear_0_48" x1="61" y1="54.0001" x2="31" y2="54.0001" gradientUnits="userSpaceOnUse">
<stop stop-color="#EDB5A0"/>
<stop offset="1" stop-color="#9BACFF"/>
</linearGradient>
</defs>
</svg>
